PathFileType	4	(X/Y/Z)	/Users/itak/Documents/Research/Walk-IL/dataset/trc/00548_00009.trc
DataRate	CameraRate	NumFrames	NumMarkers	Units	OrigDataRate	OrigDataStartFrame	OrigNumFrames
100.000000	100.000000	4	53	mm	100.000000	342	457
Frame#	Time	RPSI			LPSI			L3			STRN			T10			C7			CLAV			RBAK			LBAK			LSHO			LUPA			LAEL			LAOL			LWTS			LWPS			LFRA			LHPS			LHTS			RSHO			RUPA			RAEL			RAOL			RWTS			RWPS			RFRA			RIFD			RHTS			RHPS			RBHD			LFHD			RFHD			LBHD			LHIP			RHIP			RASI			LASI			LKNE			LTHI			LANK			LTIP			LTOE			LMT1			LMT5			LHEE			RKNE			RTHI			RANK			RTIP			RTOE			RMT1			RMT5			RHEE			LIFD			
		X1	Y1	Z1	X2	Y2	Z2	X3	Y3	Z3	X4	Y4	Z4	X5	Y5	Z5	X6	Y6	Z6	X7	Y7	Z7	X8	Y8	Z8	X9	Y9	Z9	X10	Y10	Z10	X11	Y11	Z11	X12	Y12	Z12	X13	Y13	Z13	X14	Y14	Z14	X15	Y15	Z15	X16	Y16	Z16	X17	Y17	Z17	X18	Y18	Z18	X19	Y19	Z19	X20	Y20	Z20	X21	Y21	Z21	X22	Y22	Z22	X23	Y23	Z23	X24	Y24	Z24	X25	Y25	Z25	X26	Y26	Z26	X27	Y27	Z27	X28	Y28	Z28	X29	Y29	Z29	X30	Y30	Z30	X31	Y31	Z31	X32	Y32	Z32	X33	Y33	Z33	X34	Y34	Z34	X35	Y35	Z35	X36	Y36	Z36	X37	Y37	Z37	X38	Y38	Z38	X39	Y39	Z39	X40	Y40	Z40	X41	Y41	Z41	X42	Y42	Z42	X43	Y43	Z43	X44	Y44	Z44	X45	Y45	Z45	X46	Y46	Z46	X47	Y47	Z47	X48	Y48	Z48	X49	Y49	Z49	X50	Y50	Z50	X51	Y51	Z51	X52	Y52	Z52	X53	Y53	Z53	

343	3.42	896.9766845703125	1000.067260742188	344.4694213867188	914.010986328125	995.3785400390625	212.3049926757812	907.1244506835938	1097.235595703125	276.5570373535156	1144.332397460938	1284.763793945312	298.53955078125	902.3854370117188	1223.417724609375	278.5028076171875	952.41015625	1494.61376953125	309.9482727050781	1125.986694335938	1395.335083007812	301.85400390625	877.5726318359375	1367.823486328125	386.7958679199219	921.3651733398438	1445.667602539062	216.3858489990234	1021.670043945312	1474.981689453125	139.7265930175781	1004.707702636719	1351.85791015625	55.40447616577148	999.4185180664062	1130.451171875	27.99204254150391	915.8507080078125	1130.773071289062	83.78794097900391	1061.672973632812	873.8150634765625	57.10654449462891	1009.829528808594	861.954833984375	-12.20526695251465	1010.958740234375	1042.323486328125	15.05812740325928	1008.363952636719	801.18798828125	-6.79059886932373	1062.494506835938	795.2504272460938	34.37907409667969	1004.665344238281	1452.47705078125	464.2301330566406	982.6270751953125	1388.823486328125	529.9949951171875	985.20849609375	1102.333374023438	581.0221557617188	931.2986450195312	1080.062133789062	554.7058715820312	1147.822387695312	904.4137573242188	543.9452514648438	1105.020141601562	876.2346801757812	608.093994140625	1001.294982910156	1048.753540039062	589.4397583007812	1187.641235351562	734.617919921875	549.3355102539062	1189.266723632812	818.3112182617188	558.4304809570312	1132.849487304688	805.5199584960938	604.6822509765625	1036.805053710938	1672.8212890625	389.5460510253906	1193.9150390625	1697.36328125	255.4191589355469	1176.467529296875	1689.325805664062	399.1604309082031	1064.038208007812	1679.830932617188	226.9548034667969	1062.7333984375	926.6480712890625	104.4351654052734	1003.258544921875	934.98388671875	483.4433288574219	1098.1650390625	966.050048828125	438.92919921875	1130.313842773438	957.1626586914062	165.5941619873047	1260.91064453125	526.1587524414062	162.987548828125	1189.789794921875	677.20849609375	121.9963226318359	1272.27099609375	40.18774795532227	157.7540588378906	1246.375366210938	270.3221740722656	150.8800201416016	1467.657592773438	89.73319244384766	220.0980224609375	1398.740600585938	74.29976654052734	252.1034851074219	1390.584838867188	58.63544082641602	147.7642669677734	1202.778564453125	38.28131103515625	208.1650695800781	1004.335144042969	490.9786071777344	409.923828125	1053.886108398438	776.2219848632812	464.5236511230469	859.8796997070312	42.9221305847168	344.4203491210938	986.5979614257812	348.2735595703125	383.4247436523438	1082.779663085938	40.79709243774414	322.0711975097656	1022.286682128906	44.1439094543457	277.816650390625	989.5553588867188	38.13708877563477	379.9781494140625	810.0152587890625	41.98403167724609	283.1656799316406	1029.690063476562	705.8809204101562	44.44154357910156	
344	3.43	904.9033203125	999.1429443359375	344.3965148925781	922.3259887695312	994.0751953125	212.3316345214844	914.9163818359375	1096.0830078125	276.3871154785156	1152.241088867188	1283.616333007812	298.650634765625	910.0384521484375	1222.343017578125	278.0951232910156	960.36376953125	1493.481323242188	309.6712646484375	1133.9013671875	1394.14990234375	301.8834228515625	885.3074951171875	1366.761108398438	386.3778991699219	929.4702758789062	1444.519897460938	216.0603485107422	1029.887084960938	1473.759887695312	139.5320739746094	1012.781372070312	1350.563720703125	55.37553405761719	1006.831237792969	1129.11328125	28.23568725585938	923.5047607421875	1129.678588867188	84.29170989990234	1068.911010742188	872.4436645507812	57.25955581665039	1016.623779296875	860.541748046875	-11.59923362731934	1018.173889160156	1040.963623046875	15.41944599151611	1014.872863769531	799.7598876953125	-5.98828649520874	1069.081298828125	793.6834716796875	35.10583877563477	1012.347534179688	1451.330322265625	464.0249328613281	990.1927490234375	1387.650024414062	529.7371826171875	992.74853515625	1101.198974609375	580.9647216796875	938.8864135742188	1078.897827148438	554.5885620117188	1155.478759765625	903.2848510742188	544.2782592773438	1112.596557617188	875.1315307617188	608.3721923828125	1008.841430664062	1047.627319335938	589.4317626953125	1195.224975585938	733.4373779296875	549.8591918945312	1196.863525390625	817.1589965820312	558.8972778320312	1140.397705078125	804.4227294921875	605.0283813476562	1044.768798828125	1671.675170898438	389.4871826171875	1202.054565429688	1696.114624023438	255.5875701904297	1184.438354492188	1688.060424804688	399.3051147460938	1072.206298828125	1678.7021484375	226.9329376220703	1071.730834960938	925.1286010742188	104.6491165161133	1010.71630859375	934.3672485351562	483.80322265625	1105.829467773438	965.1137084960938	439.5015869140625	1138.721801757812	955.8037719726562	166.3082427978516	1268.56494140625	524.9268798828125	163.7194213867188	1197.399536132812	675.591796875	122.2717208862305	1297.0126953125	39.92671966552734	161.7535400390625	1262.491821289062	269.2073059082031	153.2012176513672	1490.490844726562	96.11754608154297	224.2753143310547	1421.950561523438	78.99040222167969	256.1970520019531	1414.774047851562	61.86953735351562	152.0371704101562	1227.420532226562	36.52960968017578	211.8914947509766	1007.691528320312	490.5985412597656	410.125732421875	1061.865112304688	775.0404663085938	464.3306579589844	860.009765625	43.3733024597168	344.0904541015625	988.8584594726562	348.0065612792969	383.5846862792969	1082.889404296875	40.67544937133789	322.216552734375	1022.450439453125	44.14472961425781	277.9351196289062	989.6419677734375	38.12442398071289	379.9742126464844	810.282958984375	42.74144744873047	282.8181457519531	1036.046997070312	704.5382080078125	45.29420471191406	
345	3.44	912.92626953125	998.159912109375	344.3030090332031	930.638671875	992.7190551757812	212.3429565429688	922.7770385742188	1094.853393554688	276.2100219726562	1160.196655273438	1282.431396484375	298.7236328125	917.7669677734375	1221.170166015625	277.6700439453125	968.3404541015625	1492.295654296875	309.3326721191406	1141.844360351562	1392.927368164062	301.8496398925781	893.0819702148438	1365.656372070312	385.9132690429688	937.5946044921875	1443.288452148438	215.6786499023438	1038.11083984375	1472.456665039062	139.2706756591797	1020.870056152344	1349.177612304688	55.28646087646484	1014.33984375	1127.689331054688	28.39898109436035	931.2662963867188	1128.447143554688	84.74103546142578	1076.4658203125	871.0494995117188	57.35539627075195	1023.722351074219	859.0519409179688	-11.04163551330566	1025.537963867188	1039.525390625	15.71775817871094	1021.775329589844	798.2542724609375	-5.228665351867676	1076.090087890625	792.118408203125	35.76451873779297	1020.037048339844	1450.154052734375	463.7633361816406	997.769287109375	1386.4365234375	529.416015625	1000.216979980469	1100.019165039062	580.8450317382812	946.4037475585938	1077.709228515625	554.3967895507812	1162.989990234375	902.0474243164062	544.561767578125	1120.00146484375	873.9281616210938	608.585205078125	1016.303405761719	1046.462768554688	589.3560180664062	1202.60693359375	732.13037109375	550.3231201171875	1204.280029296875	815.8836669921875	559.3101806640625	1147.745849609375	803.211181640625	605.30712890625	1052.714477539062	1670.494506835938	389.3357238769531	1210.194458007812	1694.846801757812	255.6944427490234	1192.378540039062	1686.788818359375	399.3787231445312	1080.385009765625	1677.539794921875	226.8252410888672	1080.8251953125	923.558837890625	104.8154144287109	1018.283447265625	933.6887817382812	484.1036987304688	1113.599853515625	964.0989379882812	440.0468444824219	1147.24462890625	954.3931274414062	166.959228515625	1276.250610351562	523.581298828125	164.4857482910156	1205.084838867188	673.8423461914062	122.486213684082	1320.539428710938	40.04707717895508	165.7670135498047	1277.959350585938	268.244873046875	155.5600891113281	1512.104370117188	102.8065643310547	228.1039886474609	1443.981811523438	84.033447265625	260.074951171875	1437.662109375	65.43341064453125	156.1340942382812	1250.968017578125	35.14300537109375	215.7539825439453	1011.113647460938	490.2250671386719	410.3338928222656	1069.676391601562	773.85400390625	464.2695922851562	860.1754150390625	43.8582649230957	343.7320556640625	991.1575927734375	347.7540893554688	383.7379455566406	1082.9951171875	40.57524108886719	322.3625183105469	1022.5986328125	44.14509201049805	278.0397033691406	989.708251953125	38.10663604736328	379.9459533691406	810.5526733398438	43.56399536132812	282.4677734375	1042.95361328125	703.1459350585938	46.11240386962891	
346	3.45	921.0570678710938	997.1248168945312	344.1750183105469	938.9487915039062	991.3327026367188	212.3142547607422	930.7366333007812	1093.552368164062	276.016357421875	1168.20361328125	1281.21630859375	298.7597045898438	925.5994873046875	1219.908813476562	277.2278442382812	976.3433227539062	1491.064086914062	308.9357299804688	1149.824462890625	1391.676025390625	301.7558898925781	900.9046630859375	1364.515625	385.4080505371094	945.7411499023438	1441.98193359375	215.2457885742188	1046.34130859375	1471.081420898438	138.9458312988281	1028.97705078125	1347.706909179688	55.14087677001953	1021.953552246094	1126.187744140625	28.48638725280762	939.143310546875	1127.088500976562	85.14729309082031	1084.314331054688	869.6288452148438	57.41479873657227	1031.117553710938	857.4904174804688	-10.53747653961182	1033.057739257812	1038.012817382812	15.95536231994629	1029.070190429688	796.678955078125	-4.525458335876465	1083.525268554688	790.5625610351562	36.32763290405273	1027.74072265625	1448.951782226562	463.4457397460938	1005.364562988281	1385.192993164062	529.0362548828125	1007.630798339844	1098.801635742188	580.6629028320312	953.8660278320312	1076.506591796875	554.1290283203125	1170.364013671875	900.7045288085938	544.796142578125	1127.238891601562	872.6314086914062	608.72998046875	1023.6943359375	1045.267700195312	589.2146606445312	1209.796508789062	730.7046508789062	550.722412109375	1211.52587890625	814.4902954101562	559.6657104492188	1154.901489257812	801.8889770507812	605.5215454101562	1060.642456054688	1669.287963867188	389.0892639160156	1218.337036132812	1693.56884765625	255.7346954345703	1200.293823242188	1685.524047851562	399.3809204101562	1088.574096679688	1676.351440429688	226.6285705566406	1090.011108398438	921.9600830078125	104.9389266967773	1025.944946289062	932.9531860351562	484.3464050292969	1121.47607421875	963.0050048828125	440.5654602050781	1155.89013671875	952.9494018554688	167.5405120849609	1284.007080078125	522.1569213867188	165.3266296386719	1212.880981445312	671.9884643554688	122.6680297851562	1342.768188476562	40.46237564086914	169.7037353515625	1292.77392578125	267.3995056152344	157.9488372802734	1532.4326171875	109.5503540039062	231.6079711914062	1464.745971679688	89.20697784423828	263.7233581542969	1459.187377929688	69.16087341308594	160.0212097167969	1273.309204101562	34.05172348022461	219.6306610107422	1014.652160644531	489.8514709472656	410.5481567382812	1077.327026367188	772.6665649414062	464.3174438476562	860.37158203125	44.38907623291016	343.3638305664062	993.5436401367188	347.5059204101562	383.8859252929688	1083.099487304688	40.49469757080078	322.5013122558594	1022.735473632812	44.14833068847656	278.1381225585938	989.7625732421875	38.08524322509766	379.9006652832031	810.8049926757812	44.45821380615234	282.1424255371094	1050.410888671875	701.7061157226562	46.87407684326172	
